<?xml version="1.0" encoding="utf-8"?>
<!-- Generator: Adobe Illustrator 19.2.1, SVG Export Plug-In . SVG Version: 6.00 Build 0)  -->
<svg version="1.1" id="Capa_1" xmlns="http://www.w3.org/2000/svg" xmlns:xlink="http://www.w3.org/1999/xlink" x="0px" y="0px"
	 viewBox="0 0 24.3 24.3" style="enable-background:new 0 0 24.3 24.3;" xml:space="preserve">
<style type="text/css">
	.st0{fill:#030104;}
</style>
<g>
	<g>
		<path class="st0" d="M10.3,0H0.9C0.4,0,0,0.5,0,1.2v11.7c0,0.6,0.4,1.2,0.9,1.2h9.4c0.5,0,0.9-0.5,0.9-1.2V1.2
			C11.2,0.5,10.8,0,10.3,0z"/>
		<g>
			<path class="st0" d="M10.3,15.6H0.9c-0.5,0-0.9,0.3-0.9,0.7v7.3c0,0.4,0.4,0.7,0.9,0.7h9.4c0.5,0,0.9-0.3,0.9-0.7v-7.3
				C11.2,15.9,10.8,15.6,10.3,15.6z"/>
		</g>
		<g>
			<path class="st0" d="M14,24.3h9.4c0.5,0,0.9-0.5,0.9-1.2V11.4c0-0.6-0.4-1.2-0.9-1.2H14c-0.5,0-0.9,0.5-0.9,1.2v11.7
				C13.1,23.8,13.5,24.3,14,24.3z"/>
			<g>
				<path class="st0" d="M14,8.8h9.4c0.5,0,0.9-0.3,0.9-0.7V0.7c0-0.4-0.4-0.7-0.9-0.7L14,0c-0.5,0-0.9,0.3-0.9,0.7V8
					C13.1,8.4,13.5,8.8,14,8.8z"/>
			</g>
		</g>
	</g>
</g>
</svg>
