<?xml version="1.0" encoding="utf-8"?>
<!-- Generator: Adobe Illustrator 19.2.1, SVG Export Plug-In . SVG Version: 6.00 Build 0)  -->
<svg version="1.1" id="Capa_1" xmlns="http://www.w3.org/2000/svg" xmlns:xlink="http://www.w3.org/1999/xlink" x="0px" y="0px"
	 viewBox="0 0 374.1 486.7" style="enable-background:new 0 0 374.1 486.7;" xml:space="preserve">
<g>
	<path d="M347.6,196.6h-9.5v-44.4C338.1,70.1,272.9,1.5,191.5,0c-2.2,0-6.7,0-8.9,0C101.2,1.5,36,70.1,36,152.2v44.4h-9.5
		C11.9,196.6,0,211.6,0,230.3v222.6c0,18.6,11.9,33.8,26.5,33.8h321c14.6,0,26.5-15.2,26.5-33.8V230.3
		C374.1,211.6,362.2,196.6,347.6,196.6z M217.1,341.4v67.3c0,7.7-6.4,14.2-14.2,14.2h-31.8c-7.7,0-14.2-6.5-14.2-14.2v-67.3
		c-7.5-7.4-11.8-17.5-11.8-28.8c0-21.3,16.5-39.7,37.5-40.5c2.2-0.1,6.7-0.1,8.9,0c21,0.8,37.5,19.2,37.5,40.5
		C229,323.8,224.6,334,217.1,341.4z M275.6,196.6h-84.1h-8.9H98.5v-44.4c0-48.9,39.7-89.3,88.5-89.3s88.5,40.4,88.5,89.3
		L275.6,196.6L275.6,196.6z"/>
</g>
</svg>
