<?xml version="1.0" encoding="utf-8"?>
<!-- Generator: Adobe Illustrator 19.2.1, SVG Export Plug-In . SVG Version: 6.00 Build 0)  -->
<svg version="1.1" id="Capa_1" xmlns="http://www.w3.org/2000/svg" xmlns:xlink="http://www.w3.org/1999/xlink" x="0px" y="0px"
	 viewBox="0 0 490.3 490.3" style="enable-background:new 0 0 490.3 490.3;" xml:space="preserve">
<g>
	<g>
		<path d="M0,81.8v326.8c0,45,29,81.8,64.6,81.8h208.7c35.6,0,64.6-36.7,64.6-81.8v-52.9c0-9-5.7-16.2-12.8-16.2
			s-12.8,7.2-12.8,16.2v52.9c0,27.3-17.6,49.5-39.1,49.5H64.6c-21.5,0-39.1-22.3-39.1-49.5V81.8c0-27.3,17.6-49.5,39.1-49.5h208.7
			c21.5,0,39.1,22.3,39.1,49.5v52.9c0,9,5.7,16.2,12.8,16.2s12.8-7.2,12.8-16.2V81.8c0-45-29-81.8-64.6-81.8H64.6
			C29,0,0,36.6,0,81.8z"/>
		<path d="M374.9,356.5c2.6,2.9,6.1,4.3,9.6,4.3c3.5,0,6.9-1.4,9.6-4.3l92.3-101c5.3-5.8,5.3-15,0-20.8l-92.3-101
			c-5.3-5.8-13.8-5.8-19,0c-5.3,5.8-5.3,15,0,20.8l69.3,75.8H191.4c-7.5,0-13.5,6.6-13.5,14.8s6,14.8,13.5,14.8h252.8l-69.3,75.8
			C369.6,341.5,369.6,350.9,374.9,356.5z"/>
	</g>
</g>
</svg>
