<?xml version="1.0" encoding="utf-8"?>
<!-- Generator: Adobe Illustrator 19.2.1, SVG Export Plug-In . SVG Version: 6.00 Build 0)  -->
<svg version="1.1" id="Capa_1" xmlns="http://www.w3.org/2000/svg" xmlns:xlink="http://www.w3.org/1999/xlink" x="0px" y="0px"
	 viewBox="0 0 16 15" style="enable-background:new 0 0 16 15;" xml:space="preserve">
<style type="text/css">
	.st0{fill:#030104;}
</style>
<g>
	<g>
		<path class="st0" d="M12,3V0L4,0v3v2h8V3z M11,4H5V3h6V4z M11,2H5V1h6V2z"/>
		<polygon class="st0" points="4,12 4,15 12,15 12,12 12,10 4,10 		"/>
		<path class="st0" d="M2,12h1v-2V9h10v1v2h1c1,0,2-1,2-2V5c0-1-1-2-2-2h-1v2v1H3V5V3H2C1,3,0,4,0,5l0,5C0,11,1,12,2,12z"/>
	</g>
</g>
</svg>
